<?xml version="1.0" encoding="UTF-8"?>
<svg width="192px" height="81px" viewBox="0 0 192 81" version="1.1" xmlns="http://www.w3.org/2000/svg" xmlns:xlink="http://www.w3.org/1999/xlink">
    <title>LVL 5 Spector Locati</title>
    <g id="Page-1" stroke="none" stroke-width="1" fill="none" fill-rule="evenodd">
        <g id="Artboard" transform="translate(-811.000000, -170.000000)" fill-rule="nonzero">
            <g id="gps" transform="translate(298.410225, 22.959943)">
                <g id="LVL-5-Spector-Locati" transform="translate(513.088775, 147.384057)">
                    <path d="M13.124,16.656 L13.532,10.848 L12.86,10.848 C12.7,11.52 12.468,12.056 12.164,12.456 C12.052,12.632 11.708,12.984 11.132,13.512 C10.3,14.312 9.204,14.712 7.844,14.712 C6.292,14.712 5.516,13.928 5.516,12.36 C5.516,12.008 5.508,11.384 5.492,10.488 C5.476,9.768 5.476,9.08 5.492,8.424 L5.564,3.12 C5.58,2.448 5.612,2.008 5.66,1.8 C5.804,1.304 6.1,1.056 6.548,1.056 L6.788,1.056 L6.788,0.384 L0.62,0.384 L0.62,1.056 L0.86,1.056 C1.324,1.056 1.62,1.304 1.748,1.8 C1.812,2.024 1.844,2.464 1.844,3.12 L1.844,13.92 C1.844,14.576 1.812,15.016 1.748,15.24 C1.62,15.736 1.324,15.984 0.86,15.984 L0.62,15.984 L0.62,16.656 L13.124,16.656 Z M22.508,16.776 L25.964,7.68 C26.492,6.288 26.86,5.352 27.068,4.872 C27.532,3.784 27.988,2.896 28.436,2.208 C28.932,1.44 29.428,1.056 29.924,1.056 L29.924,0.384 L23.708,0.384 L23.708,1.056 C24.748,1.056 25.268,1.464 25.268,2.28 C25.268,2.68 25.156,3.168 24.932,3.744 L23.372,7.8 C23.132,8.408 22.812,9.32 22.412,10.536 L22.268,10.536 C22.108,9.768 21.804,8.832 21.356,7.728 L19.196,2.4 C19.116,2.208 19.076,2.024 19.076,1.848 C19.076,1.32 19.676,1.056 20.876,1.056 L20.876,0.384 L13.364,0.384 L13.364,1.056 C13.828,1.056 14.192,1.26 14.456,1.668 C14.72,2.076 15.324,3.36 16.268,5.52 L21.14,16.776 L22.508,16.776 Z M43.508,16.656 L43.916,10.848 L43.244,10.848 C43.084,11.52 42.852,12.056 42.548,12.456 C42.436,12.632 42.092,12.984 41.516,13.512 C40.684,14.312 39.588,14.712 38.228,14.712 C36.676,14.712 35.9,13.928 35.9,12.36 C35.9,12.008 35.892,11.384 35.876,10.488 C35.86,9.768 35.86,9.08 35.876,8.424 L35.948,3.12 C35.964,2.448 35.996,2.008 36.044,1.8 C36.188,1.304 36.484,1.056 36.932,1.056 L37.172,1.056 L37.172,0.384 L31.004,0.384 L31.004,1.056 L31.244,1.056 C31.708,1.056 32.004,1.304 32.132,1.8 C32.196,2.024 32.228,2.464 32.228,3.12 L32.228,13.92 C32.228,14.576 32.196,15.016 32.132,15.24 C32.004,15.736 31.708,15.984 31.244,15.984 L31.004,15.984 L31.004,16.656 L43.508,16.656 Z" id="LVL" fill="#000000"></path>
                    <path d="M60.98,17.04 C62.852,17.04 64.364,16.496 65.516,15.408 C66.604,14.384 67.148,13.12 67.148,11.616 C67.148,9.008 65.796,7.224 63.092,6.264 C62.228,5.96 61.42,5.8 60.668,5.784 L61.076,3.648 L66.404,3.672 L67.052,0.384 L59.828,0.384 L57.86,8.856 C60.34,8.856 62.164,9.296 63.332,10.176 C64.308,10.912 64.796,11.88 64.796,13.08 C64.796,14.776 63.852,15.624 61.964,15.624 C61.084,15.624 60.396,15.288 59.9,14.616 C59.452,14.008 59.228,13.248 59.228,12.336 C57.82,12.4 57.116,13.128 57.116,14.52 C57.116,15.208 57.412,15.784 58.004,16.248 C58.676,16.776 59.668,17.04 60.98,17.04 Z" id="5" fill="#F36060"></path>
                    <path d="M87.6,17.016 C89.424,17.016 90.92,16.54 92.088,15.588 C93.256,14.636 93.84,13.472 93.84,12.096 C93.84,10.336 92.936,8.888 91.128,7.752 C90.904,7.608 90.512,7.456 89.952,7.296 C89.296,7.104 88.848,6.952 88.608,6.84 C88.176,6.68 87.6,6.432 86.88,6.096 C86.544,5.904 86.128,5.624 85.632,5.256 C85.488,5.112 85.328,4.776 85.152,4.248 C85.104,4.12 85.104,3.928 85.152,3.672 C85.184,3.432 85.248,3.248 85.344,3.12 C85.632,2.736 85.804,2.516 85.86,2.46 C85.916,2.404 86.072,2.312 86.328,2.184 C86.856,1.912 87.44,1.776 88.08,1.776 C88.656,1.776 89.2,1.856 89.712,2.016 C90.32,2.208 90.864,2.464 91.344,2.784 C91.904,3.152 92.392,3.616 92.808,4.176 L92.808,0.624 C92.792,0.624 92.712,0.656 92.568,0.72 C92.424,0.784 92.288,0.8 92.16,0.768 C91.952,0.64 91.6,0.488 91.104,0.312 C90.016,0.104 89.104,2.84217094e-14 88.368,2.84217094e-14 C86.48,2.84217094e-14 84.992,0.528 83.904,1.584 C82.912,2.544 82.416,3.624 82.416,4.824 C82.416,6.2 82.856,7.328 83.736,8.208 C84.376,8.848 85.424,9.496 86.88,10.152 C87.28,10.248 87.824,10.424 88.512,10.68 C88.848,10.824 89.28,11.056 89.808,11.376 C90.272,11.808 90.552,12.136 90.648,12.36 C90.776,12.648 90.784,12.944 90.672,13.248 C90.496,13.728 90.208,14.152 89.808,14.52 C89.36,14.92 88.672,15.12 87.744,15.12 C87.504,15.12 86.992,15.016 86.208,14.808 C85.952,14.744 85.512,14.568 84.888,14.28 C84.376,14.056 83.936,13.736 83.568,13.32 C83.376,13.144 82.968,12.776 82.344,12.216 L82.392,14.064 L82.392,16.344 C82.4026667,16.344 82.424,16.3404444 82.456,16.3333333 L82.584,16.3013333 C82.6373333,16.2871111 82.7013333,16.2693333 82.776,16.248 C82.952,16.2 83.104,16.192 83.232,16.224 C83.456,16.352 83.816,16.504 84.312,16.68 C85.528,16.904 86.624,17.016 87.6,17.016 Z M102.484,16.656 L102.484,15.984 L102.028,15.984 C101.564,15.984 101.268,15.736 101.14,15.24 C101.076,15.016 101.044,14.576 101.044,13.92 L101.044,11.88 C101.044,11.704 101.036,11.368 101.02,10.872 L101.02,9.816 L101.02,9.816 C101.452,9.944 102.388,10.008 103.828,10.008 C104.964,10.008 106.004,9.808 106.948,9.408 C108.004,8.944 108.804,8.28 109.348,7.416 C109.716,6.824 109.9,6.12 109.9,5.304 C109.9,3.704 109.332,2.464 108.196,1.584 C107.172,0.784 105.852,0.384 104.236,0.384 L96.22,0.384 L96.22,1.056 L96.46,1.056 C96.924,1.056 97.22,1.304 97.348,1.8 C97.412,2.024 97.444,2.464 97.444,3.12 L97.444,13.92 C97.444,14.576 97.412,15.016 97.348,15.24 C97.22,15.736 96.924,15.984 96.46,15.984 L96.22,15.984 L96.22,16.656 L102.484,16.656 Z M102.388,8.76 C101.908,8.76 101.492,8.728 101.14,8.664 C101.124,7.896 101.116,6.696 101.116,5.064 C101.116,4.504 101.124,3.592 101.14,2.328 C101.524,2.216 101.964,2.16 102.46,2.16 C103.58,2.16 104.468,2.528 105.124,3.264 C105.412,3.616 105.628,4.016 105.772,4.464 C105.884,4.832 105.94,5.256 105.94,5.736 C105.94,6.168 105.86,6.576 105.7,6.96 C105.572,7.248 105.292,7.584 104.86,7.968 C104.588,8.208 104.22,8.4 103.756,8.544 C103.292,8.688 102.836,8.76 102.388,8.76 Z M125.12,16.656 L125.36,11.736 L124.688,11.736 C124.656,11.928 124.592,12.064 124.496,12.144 C124.352,12.256 124.248,12.376 124.184,12.504 C123.64,13.512 122.752,14.216 121.52,14.616 C120.864,14.824 120.104,14.928 119.24,14.928 C118.328,14.928 117.68,14.824 117.296,14.616 C116.768,14.328 116.504,13.768 116.504,12.936 L116.504,11.448 C116.504,11.016 116.512,10.352 116.528,9.456 L119.936,9.36 L121.064,9.744 L121.064,6.504 L120.608,6.864 L120.152,7.032 L120.08,7.032 L120.08,7.032 C120.032,7.032 119.944,7.052 119.816,7.092 C119.696533,7.12933333 119.110151,7.14924444 118.056853,7.15173333 L116.6,7.152 L116.6,4.872 L116.6,4.872 C116.6,4.632 116.616,3.768 116.648,2.28 L118.808,2.28 C120.36,2.28 121.528,2.616 122.312,3.288 C122.616,3.528 122.92,3.776 123.224,4.032 C123.448,4.256 123.576,4.608 123.608,5.088 L124.28,5.088 L124.16,0.384 L111.68,0.384 L111.68,1.056 L111.92,1.056 C112.384,1.056 112.68,1.304 112.808,1.8 C112.872,2.024 112.904,2.464 112.904,3.12 L112.904,13.92 C112.904,14.576 112.872,15.016 112.808,15.24 C112.68,15.736 112.384,15.984 111.92,15.984 L111.68,15.984 L111.68,16.656 L125.12,16.656 Z M134.748,17.04 C136.396,17.04 137.7,16.544 138.66,15.552 C139.396,14.784 139.9,13.752 140.172,12.456 L139.62,12.288 C139.572,12.48 139.492,12.632 139.38,12.744 C139.188,12.92 139.076,13.04 139.044,13.104 C138.276,14.272 137.18,14.856 135.756,14.856 C134.092,14.856 132.852,14.272 132.036,13.104 C131.46,12.304 131.108,11.272 130.98,10.008 C130.948,9.704 130.932,9.288 130.932,8.76 C130.932,8.152 131.028,7.4 131.22,6.504 C131.62,4.664 132.388,3.368 133.524,2.616 C134.1,2.248 134.772,2.064 135.54,2.064 C136.356,2.064 137.084,2.344 137.724,2.904 C138.3,3.416 138.74,4.08 139.044,4.896 C139.236,5.472 139.332,5.872 139.332,6.096 C139.332,6.208 139.444,6.264 139.668,6.264 C139.892,6.264 140.004,6.208 140.004,6.096 L140.004,0.576 C140.004,0.576 139.508,0.472 138.516,0.264 C137.588,0.088 136.684,2.84217094e-14 135.804,2.84217094e-14 C133.26,2.84217094e-14 131.132,0.892 129.42,2.676 C127.708,4.46 126.852,6.616 126.852,9.144 C126.852,11.368 127.484,13.184 128.748,14.592 C130.188,16.224 132.188,17.04 134.748,17.04 Z M151.308,16.656 L151.308,15.984 L151.068,15.984 C150.604,15.984 150.308,15.736 150.18,15.24 C150.116,15.016 150.084,14.576 150.084,13.92 L150.084,13.92 L150.108,10.968 C150.124,7.72 150.148,5.56 150.18,4.488 C150.196,3.72 150.212,3.016 150.228,2.376 C151.38,2.408 152.212,2.432 152.724,2.448 L152.724,2.448 L153.804,2.52 C154.396,2.6 154.94,3.072 155.436,3.936 L155.436,3.936 L155.436,1.944 L155.46,0.384 L141.156,0.384 L141.156,2.76 L141.18,3.792 C141.18,3.616 141.26,3.448 141.42,3.288 C141.516,3.192 141.652,3.088 141.828,2.976 C142.228,2.704 142.628,2.536 143.028,2.472 C143.3,2.424 143.78,2.4 144.468,2.4 L144.468,2.4 L144.943333,2.39933333 C145.687778,2.39711111 146.193333,2.38933333 146.46,2.376 L146.46,2.376 L146.484,13.92 C146.484,14.576 146.452,15.016 146.388,15.24 C146.26,15.736 145.964,15.984 145.5,15.984 L145.5,15.984 L145.26,15.984 L145.26,16.656 L151.308,16.656 Z M164.292,17.04 C166.916,17.04 169.004,16.192 170.556,14.496 C172.06,12.864 172.812,10.752 172.812,8.16 C172.812,5.792 172.076,3.84 170.604,2.304 C169.132,0.768 167.316,2.84217094e-14 165.156,2.84217094e-14 C162.532,2.84217094e-14 160.404,0.88 158.772,2.64 C157.252,4.272 156.492,6.296 156.492,8.712 C156.492,11.416 157.26,13.504 158.796,14.976 C160.22,16.352 162.052,17.04 164.292,17.04 Z M164.724,14.856 C163.46,14.856 162.468,14.168 161.748,12.792 C161.476,12.296 161.332,12.032 161.316,12 C161.204,11.744 161.108,11.408 161.028,10.992 C160.804,9.856 160.692,8.992 160.692,8.4 C160.692,7.808 160.788,7.04 160.98,6.096 C161.092,5.536 161.324,4.928 161.676,4.272 C162.364,2.944 163.324,2.28 164.556,2.28 C165.82,2.28 166.812,2.944 167.532,4.272 C167.74,4.672 167.876,4.968 167.94,5.16 C168.068,5.464 168.172,5.824 168.252,6.24 C168.492,7.488 168.612,8.312 168.612,8.712 C168.612,9.32 168.492,10.176 168.252,11.28 C168.124,11.856 167.86,12.472 167.46,13.128 C166.772,14.28 165.86,14.856 164.724,14.856 Z M180.996,16.656 L180.996,15.984 L180.756,15.984 C180.292,15.984 179.996,15.736 179.868,15.24 C179.804,15.016 179.772,14.576 179.772,13.92 L179.772,11.832 C179.772,11.032 179.78,10.224 179.796,9.408 C180.148,9.456 180.46,9.56 180.732,9.72 L182.292,11.304 C183.076,12.696 183.844,13.952 184.596,15.072 C184.932,15.584 185.1,15.928 185.1,16.104 C185.1,16.264 185.044,16.448 184.932,16.656 L190.644,16.656 L190.644,15.984 C190.34,15.984 189.828,15.608 189.108,14.856 C187.844,13.56 186.42,11.584 184.836,8.928 C186.612,8.4 187.78,7.496 188.34,6.216 C188.516,5.8 188.604,5.36 188.604,4.896 C188.604,2.816 187.564,1.424 185.484,0.72 C184.796,0.496 183.988,0.384 183.06,0.384 L174.948,0.384 L174.948,1.056 L175.188,1.056 C175.652,1.056 175.948,1.304 176.076,1.8 C176.14,2.024 176.172,2.464 176.172,3.12 L176.172,13.92 C176.172,14.576 176.14,15.016 176.076,15.24 C175.948,15.736 175.652,15.984 175.188,15.984 L174.948,15.984 L174.948,16.656 L180.996,16.656 Z M181.26,8.568 C180.892,8.568 180.404,8.528 179.796,8.448 L179.844,6.12 C179.86,5.384 179.876,4.704 179.892,4.08 C179.908,3.936 179.924,3.64 179.94,3.192 C179.956,2.744 179.972,2.4 179.988,2.16 C180.436,2.08 180.884,2.04 181.332,2.04 C182.468,2.04 183.324,2.384 183.9,3.072 C184.172,3.408 184.372,3.8 184.5,4.248 C184.596,4.584 184.644,4.832 184.644,4.992 C184.644,6.304 184.316,7.256 183.66,7.848 C183.116,8.328 182.316,8.568 181.26,8.568 Z" id="Spector" fill="#000000"></path>
                    <path d="M10.82,53.656 L11.16,48.816 L10.6,48.816 C10.4666667,49.376 10.2733333,49.8226667 10.02,50.156 C9.92666667,50.3026667 9.64,50.596 9.16,51.036 C8.46666667,51.7026667 7.55333333,52.036 6.42,52.036 C5.12666667,52.036 4.48,51.3826667 4.48,50.076 C4.48,49.7826667 4.47333333,49.2626667 4.46,48.516 C4.44666667,47.916 4.44666667,47.3426667 4.46,46.796 L4.52,42.376 C4.53333333,41.816 4.56,41.4493333 4.6,41.276 C4.72,40.8626667 4.96666667,40.656 5.34,40.656 L5.54,40.656 L5.54,40.096 L0.4,40.096 L0.4,40.656 L0.6,40.656 C0.986666667,40.656 1.23333333,40.8626667 1.34,41.276 C1.39333333,41.4626667 1.42,41.8293333 1.42,42.376 L1.42,51.376 C1.42,51.9226667 1.39333333,52.2893333 1.34,52.476 C1.23333333,52.8893333 0.986666667,53.096 0.6,53.096 L0.4,53.096 L0.4,53.656 L10.82,53.656 Z M19.3090909,53.976 C21.4957576,53.976 23.2357576,53.2693333 24.5290909,51.856 C25.7824242,50.496 26.4090909,48.736 26.4090909,46.576 C26.4090909,44.6026667 25.7957576,42.976 24.5690909,41.696 C23.3424242,40.416 21.8290909,39.776 20.0290909,39.776 C17.8424242,39.776 16.0690909,40.5093333 14.7090909,41.976 C13.4424242,43.336 12.8090909,45.0226667 12.8090909,47.036 C12.8090909,49.2893333 13.4490909,51.0293333 14.7290909,52.256 C15.9157576,53.4026667 17.4424242,53.976 19.3090909,53.976 Z M19.6690909,52.156 C18.6157576,52.156 17.7890909,51.5826667 17.1890909,50.436 C17.0379798,50.1604444 16.9342761,49.9708148 16.8779798,49.8671111 L16.837486,49.7920494 C16.8333707,49.7843128 16.8305724,49.778963 16.8290909,49.776 C16.7357576,49.5626667 16.6557576,49.2826667 16.5890909,48.936 C16.4024242,47.9893333 16.3090909,47.2693333 16.3090909,46.776 C16.3090909,46.2826667 16.3890909,45.6426667 16.5490909,44.856 C16.6424242,44.3893333 16.8357576,43.8826667 17.1290909,43.336 C17.7024242,42.2293333 18.5024242,41.676 19.5290909,41.676 C20.5824242,41.676 21.4090909,42.2293333 22.0090909,43.336 C22.1824242,43.6693333 22.2957576,43.916 22.3490909,44.076 C22.4557576,44.3293333 22.5424242,44.6293333 22.6090909,44.976 C22.8090909,46.016 22.9090909,46.7026667 22.9090909,47.036 C22.9090909,47.5426667 22.8090909,48.256 22.6090909,49.176 C22.5024242,49.656 22.2824242,50.1693333 21.9490909,50.716 C21.3757576,51.676 20.6157576,52.156 19.6690909,52.156 Z M35.2581818,53.976 C36.6315152,53.976 37.7181818,53.5626667 38.5181818,52.736 C39.1315152,52.096 39.5515152,51.236 39.7781818,50.156 L39.3181818,50.016 C39.2781818,50.176 39.2115152,50.3026667 39.1181818,50.396 C38.9581818,50.5426667 38.8648485,50.6426667 38.8381818,50.696 C38.1981818,51.6693333 37.2848485,52.156 36.0981818,52.156 C34.7115152,52.156 33.6781818,51.6693333 32.9981818,50.696 C32.5181818,50.0293333 32.2248485,49.1693333 32.1181818,48.116 C32.0915152,47.8626667 32.0781818,47.516 32.0781818,47.076 C32.0781818,46.5693333 32.1581818,45.9426667 32.3181818,45.196 C32.6515152,43.6626667 33.2915152,42.5826667 34.2381818,41.956 C34.7181818,41.6493333 35.2781818,41.496 35.9181818,41.496 C36.5981818,41.496 37.2048485,41.7293333 37.7381818,42.196 C38.2181818,42.6226667 38.5848485,43.176 38.8381818,43.856 C38.9981818,44.336 39.0781818,44.6693333 39.0781818,44.856 C39.0781818,44.9493333 39.1715152,44.996 39.3581818,44.996 C39.5448485,44.996 39.6381818,44.9493333 39.6381818,44.856 L39.6381818,40.256 C39.6381818,40.256 39.2248485,40.1693333 38.3981818,39.996 C37.6248485,39.8493333 36.8715152,39.776 36.1381818,39.776 C34.0181818,39.776 32.2448485,40.5193333 30.8181818,42.006 C29.3915152,43.4926667 28.6781818,45.2893333 28.6781818,47.396 C28.6781818,49.2493333 29.2048485,50.7626667 30.2581818,51.936 C31.4581818,53.296 33.1248485,53.976 35.2581818,53.976 Z M45.4072727,53.656 L45.4072727,53.096 C44.5406061,53.096 44.1072727,52.756 44.1072727,52.076 C44.1072727,51.7693333 44.2006061,51.3626667 44.3872727,50.856 L44.7672727,49.836 L49.1872727,49.836 L50.0672727,51.976 C50.1339394,52.136 50.1672727,52.2893333 50.1672727,52.436 C50.1672727,52.876 49.6672727,53.096 48.6672727,53.096 L48.6672727,53.656 L54.9272727,53.656 L54.9272727,53.096 C54.5539394,53.096 54.2472727,52.9126667 54.0072727,52.546 C53.7672727,52.1793333 53.2672727,51.1226667 52.5072727,49.376 L48.4472727,39.996 L47.3072727,39.996 L44.4272727,47.576 C43.9872727,48.736 43.6806061,49.516 43.5072727,49.916 C43.1206061,50.8226667 42.7406061,51.5626667 42.3672727,52.136 C41.9539394,52.776 41.5406061,53.096 41.1272727,53.096 L41.1272727,53.656 L45.4072727,53.656 Z M45.3272727,48.496 L46.1072727,46.336 C46.3072727,45.8426667 46.5739394,45.0826667 46.9072727,44.056 L47.0272727,44.056 C47.1339394,44.5893333 47.3872727,45.3693333 47.7872727,46.396 L48.5872727,48.476 L45.3272727,48.496 Z M64.2763636,53.656 L64.2763636,53.096 L64.0763636,53.096 C63.689697,53.096 63.4430303,52.8893333 63.3363636,52.476 C63.2830303,52.2893333 63.2563636,51.9226667 63.2563636,51.376 L63.2563636,51.376 L63.2763636,48.916 C63.289697,46.2093333 63.309697,44.4093333 63.3363636,43.516 C63.349697,42.876 63.3630303,42.2893333 63.3763636,41.756 C64.3363636,41.7826667 65.029697,41.8026667 65.4563636,41.816 L65.4563636,41.816 L66.3563636,41.876 C66.849697,41.9426667 67.3030303,42.336 67.7163636,43.056 L67.7163636,43.056 L67.7163636,41.396 L67.7363636,40.096 L55.8163636,40.096 L55.8163636,42.076 L55.8363636,42.936 C55.8363636,42.7893333 55.9030303,42.6493333 56.0363636,42.516 C56.1163636,42.436 56.229697,42.3493333 56.3763636,42.256 C56.709697,42.0293333 57.0430303,41.8893333 57.3763636,41.836 C57.6030303,41.796 58.0030303,41.776 58.5763636,41.776 L58.5763636,41.776 L59.0459636,41.7752 C59.6262303,41.7730667 60.0230303,41.7666667 60.2363636,41.756 L60.2363636,41.756 L60.2563636,51.376 C60.2563636,51.9226667 60.229697,52.2893333 60.1763636,52.476 C60.069697,52.8893333 59.8230303,53.096 59.4363636,53.096 L59.4363636,53.096 L59.2363636,53.096 L59.2363636,53.656 L64.2763636,53.656 Z M74.9654545,53.656 L74.9654545,53.096 L74.7654545,53.096 C74.3787879,53.096 74.1321212,52.8893333 74.0254545,52.476 C73.9721212,52.2893333 73.9454545,51.9226667 73.9454545,51.376 C73.9454545,49.8693333 73.9587879,48.3693333 73.9854545,46.876 L74.0454545,42.376 C74.0587879,41.816 74.0854545,41.4493333 74.1254545,41.276 C74.2454545,40.8626667 74.4921212,40.656 74.8654545,40.656 L75.0654545,40.656 L75.0654545,40.096 L69.9254545,40.096 L69.9254545,40.656 L70.1254545,40.656 C70.5121212,40.656 70.7587879,40.8626667 70.8654545,41.276 C70.9187879,41.4626667 70.9454545,41.8293333 70.9454545,42.376 L70.9454545,51.376 C70.9454545,51.9226667 70.9187879,52.2893333 70.8654545,52.476 C70.7587879,52.8893333 70.5121212,53.096 70.1254545,53.096 L69.9254545,53.096 L69.9254545,53.656 L74.9654545,53.656 Z M84.2545455,53.976 C86.4412121,53.976 88.1812121,53.2693333 89.4745455,51.856 C90.7278788,50.496 91.3545455,48.736 91.3545455,46.576 C91.3545455,44.6026667 90.7412121,42.976 89.5145455,41.696 C88.2878788,40.416 86.7745455,39.776 84.9745455,39.776 C82.7878788,39.776 81.0145455,40.5093333 79.6545455,41.976 C78.3878788,43.336 77.7545455,45.0226667 77.7545455,47.036 C77.7545455,49.2893333 78.3945455,51.0293333 79.6745455,52.256 C80.8612121,53.4026667 82.3878788,53.976 84.2545455,53.976 Z M84.6145455,52.156 C83.5612121,52.156 82.7345455,51.5826667 82.1345455,50.436 C81.9078788,50.0226667 81.7878788,49.8026667 81.7745455,49.776 C81.6812121,49.5626667 81.6012121,49.2826667 81.5345455,48.936 C81.3478788,47.9893333 81.2545455,47.2693333 81.2545455,46.776 C81.2545455,46.2826667 81.3345455,45.6426667 81.4945455,44.856 C81.5878788,44.3893333 81.7812121,43.8826667 82.0745455,43.336 C82.6478788,42.2293333 83.4478788,41.676 84.4745455,41.676 C85.5278788,41.676 86.3545455,42.2293333 86.9545455,43.336 C87.1278788,43.6693333 87.2412121,43.916 87.2945455,44.076 C87.4012121,44.3293333 87.4878788,44.6293333 87.5545455,44.976 C87.7545455,46.016 87.8545455,46.7026667 87.8545455,47.036 C87.8545455,47.5426667 87.7545455,48.256 87.5545455,49.176 C87.4478788,49.656 87.2278788,50.1693333 86.8945455,50.716 C86.3212121,51.676 85.5612121,52.156 84.6145455,52.156 Z M104.903636,53.816 C105.290303,53.816 105.483636,53.7626667 105.483636,53.656 L105.483636,42.796 C105.483636,41.9693333 105.610303,41.3826667 105.863636,41.036 C106.050303,40.7826667 106.31697,40.656 106.663636,40.656 L106.863636,40.656 L106.863636,40.096 L101.603636,40.076 L101.603636,40.636 L101.843636,40.636 C103.163636,40.636 103.803636,41.4293333 103.763636,43.016 L103.703636,45.656 C103.703636,45.9226667 103.710303,46.2893333 103.723636,46.756 C103.73697,47.276 103.743636,47.636 103.743636,47.836 L103.663636,47.856 C103.610303,47.736 103.530303,47.5893333 103.423636,47.416 L103.083636,46.856 C102.93697,46.6293333 102.710303,46.296 102.403636,45.856 L98.3636364,40.096 L94.0436364,40.096 L94.0436364,40.656 L94.2436364,40.656 C94.5369697,40.656 94.830303,40.7826667 95.1236364,41.036 C95.4569697,41.356 95.6236364,41.7693333 95.6236364,42.276 L95.6236364,50.536 C95.6236364,51.5093333 95.490303,52.2093333 95.2236364,52.636 C95.0236364,52.9426667 94.7636364,53.096 94.4436364,53.096 L94.2436364,53.096 L94.2436364,53.656 L99.6836364,53.616 L99.6836364,53.056 L99.4436364,53.056 C98.6036364,53.056 98.030303,52.8093333 97.7236364,52.316 C97.510303,51.956 97.3969697,51.3293333 97.3836364,50.436 L97.3236364,45.776 C97.3236364,45.616 97.3169697,45.2626667 97.3036364,44.716 C97.290303,44.276 97.2836364,43.916 97.2836364,43.636 L97.3636364,43.616 C97.5769697,44.0826667 97.9969697,44.736 98.6236364,45.576 L104.623636,53.756 C104.663636,53.796 104.75697,53.816 104.903636,53.816 Z M111.352727,47.516 C111.832727,47.516 112.236061,47.356 112.562727,47.036 C112.889394,46.716 113.052727,46.316 113.052727,45.836 C113.052727,45.3693333 112.886061,44.9693333 112.552727,44.636 C112.219394,44.3026667 111.819394,44.136 111.352727,44.136 C110.886061,44.136 110.489394,44.3026667 110.162727,44.636 C109.836061,44.9693333 109.672727,45.3693333 109.672727,45.836 C109.672727,46.316 109.832727,46.716 110.152727,47.036 C110.472727,47.356 110.872727,47.516 111.352727,47.516 Z M111.352727,53.916 C111.832727,53.916 112.236061,53.756 112.562727,53.436 C112.889394,53.116 113.052727,52.716 113.052727,52.236 C113.052727,51.7693333 112.886061,51.3693333 112.552727,51.036 C112.219394,50.7026667 111.819394,50.536 111.352727,50.536 C110.886061,50.536 110.489394,50.7026667 110.162727,51.036 C109.836061,51.3693333 109.672727,51.7693333 109.672727,52.236 C109.672727,52.716 109.832727,53.116 110.152727,53.436 C110.472727,53.756 110.872727,53.916 111.352727,53.916 Z" id="Location:" fill="#FFFFFF"></path>
                    <path d="M3.14,79.976 C4.94,79.976 6.36666667,79.536 7.42,78.656 C8.40666667,77.8293333 8.9,76.756 8.9,75.436 C8.9,74.4893333 8.54,73.7093333 7.82,73.096 C7.15333333,72.5226667 6.34,72.2226667 5.38,72.196 C7.16666667,71.4893333 8.06,70.3826667 8.06,68.876 C8.06,67.5026667 7.38666667,66.5626667 6.04,66.056 C5.58666667,65.896 5.04666667,65.816 4.42,65.816 C3.46,65.816 2.60333333,66.086 1.85,66.626 C1.09666667,67.166 0.58,67.8893333 0.3,68.796 C0.3,68.9693333 0.4,69.056 0.6,69.056 C0.653333333,69.056 0.686666667,69.0426667 0.7,69.016 C1.34,68.1893333 2.12666667,67.776 3.06,67.776 C3.78,67.776 4.34666667,67.996 4.76,68.436 C5.17333333,68.876 5.38,69.4093333 5.38,70.036 C5.38,70.7293333 5.14,71.3293333 4.66,71.836 C4.11333333,72.4093333 3.33333333,72.736 2.32,72.816 L2.32,73.276 C3.65333333,73.276 4.66,73.5893333 5.34,74.216 C5.91333333,74.7626667 6.2,75.4493333 6.2,76.276 C6.2,77.0093333 6,77.6126667 5.6,78.086 C5.2,78.5593333 4.64666667,78.796 3.94,78.796 C3.18,78.796 2.6,78.5426667 2.2,78.036 C1.86666667,77.6226667 1.7,77.1093333 1.7,76.496 C0.566666667,76.496 -5.68434189e-14,77.0026667 -5.68434189e-14,78.016 C-5.68434189e-14,78.5093333 0.233333333,78.936 0.7,79.296 C1.26,79.7493333 2.07333333,79.976 3.14,79.976 Z M14.42,79.896 C15.9933333,79.896 17.2666667,79.4893333 18.24,78.676 C19.1466667,77.9293333 19.6,77.0026667 19.6,75.896 C19.6,75.136 19.3533333,74.376 18.86,73.616 C18.4866667,73.0293333 17.8066667,72.396 16.82,71.716 C17.7133333,71.2226667 18.3133333,70.796 18.62,70.436 C19.06,69.9293333 19.28,69.3893333 19.28,68.816 C19.28,68.016 18.9333333,67.3293333 18.24,66.756 C17.4666667,66.1293333 16.5066667,65.816 15.36,65.816 C13.9733333,65.816 12.8533333,66.1693333 12,66.876 C11.2133333,67.5293333 10.82,68.3426667 10.82,69.316 C10.82,70.0093333 11.0466667,70.696 11.5,71.376 C11.9,71.976 12.54,72.5093333 13.42,72.976 C12.4466667,73.496 11.74,74.036 11.3,74.596 C10.82,75.2093333 10.58,75.8426667 10.58,76.496 C10.58,77.2026667 10.7933333,77.8293333 11.22,78.376 C11.6466667,78.9226667 12.2,79.3293333 12.88,79.596 C13.3466667,79.796 13.86,79.896 14.42,79.896 Z M15.68,71.076 C15.5466667,70.9693333 15.3066667,70.796 14.96,70.556 C13.9466667,69.9026667 13.44,69.1293333 13.44,68.236 C13.44,68.0093333 13.5066667,67.8293333 13.64,67.696 L13.96,67.416 L13.96,67.416 C14.24,67.136 14.6266667,66.996 15.12,66.996 C15.9066667,66.996 16.44,67.4093333 16.72,68.236 C16.8133333,68.5026667 16.86,68.7293333 16.86,68.916 C16.86,69.4093333 16.7933333,69.7826667 16.66,70.036 C16.5133333,70.2226667 16.1866667,70.5693333 15.68,71.076 Z M14.98,78.636 C14.46,78.636 14.0133333,78.4093333 13.64,77.956 C13.4533333,77.7293333 13.3066667,77.4426667 13.2,77.096 C13.1066667,76.8426667 13.06,76.6493333 13.06,76.516 C13.06,75.8893333 13.16,75.3226667 13.36,74.816 C13.4133333,74.656 13.5933333,74.4493333 13.9,74.196 C14.2066667,73.9426667 14.3933333,73.7626667 14.46,73.656 C14.5533333,73.7626667 14.76,73.9493333 15.08,74.216 C16.1866667,75.016 16.74,75.9226667 16.74,76.936 C16.74,77.256 16.6666667,77.516 16.52,77.716 C16.4,77.836 16.2866667,77.9493333 16.18,78.056 C15.82,78.4426667 15.42,78.636 14.98,78.636 Z M24.06,79.856 C24.4066667,79.856 24.7466667,79.8026667 25.08,79.696 C25.5333333,79.5626667 25.7733333,79.3626667 25.8,79.096 C26.1066667,76.0026667 27.1,72.7226667 28.78,69.256 C29.2333333,68.296 29.72,67.3693333 30.24,66.476 C30.2666667,66.436 30.28,66.3893333 30.28,66.336 C30.28,66.176 30.2266667,66.096 30.12,66.096 L22,66.096 C21.6133333,68.136 21.2933333,69.5426667 21.04,70.316 L22.08,70.356 C22.3333333,69.7293333 22.64,69.2993333 23,69.066 C23.36,68.8326667 23.8733333,68.7293333 24.54,68.756 L27.12,68.856 C26.9333333,69.1626667 26.7066667,69.6326667 26.44,70.266 C26.1733333,70.8993333 25.9366667,71.3826667 25.73,71.716 C25.5233333,72.0493333 25.2866667,72.5026667 25.02,73.076 C24.7266667,73.7293333 24.5133333,74.1693333 24.38,74.396 C23.26,76.3826667 22.6533333,77.8626667 22.56,78.836 C22.4933333,79.516 22.9933333,79.856 24.06,79.856 Z M34.7,79.976 C36.5,79.976 37.9266667,79.536 38.98,78.656 C39.9666667,77.8293333 40.46,76.756 40.46,75.436 C40.46,74.4893333 40.1,73.7093333 39.38,73.096 C38.7133333,72.5226667 37.9,72.2226667 36.94,72.196 C38.7266667,71.4893333 39.62,70.3826667 39.62,68.876 C39.62,67.5026667 38.9466667,66.5626667 37.6,66.056 C37.1466667,65.896 36.6066667,65.816 35.98,65.816 C35.02,65.816 34.1633333,66.086 33.41,66.626 C32.6566667,67.166 32.14,67.8893333 31.86,68.796 C31.86,68.9693333 31.96,69.056 32.16,69.056 C32.2133333,69.056 32.2466667,69.0426667 32.26,69.016 C32.9,68.1893333 33.6866667,67.776 34.62,67.776 C35.34,67.776 35.9066667,67.996 36.32,68.436 C36.7333333,68.876 36.94,69.4093333 36.94,70.036 C36.94,70.7293333 36.7,71.3293333 36.22,71.836 C35.6733333,72.4093333 34.8933333,72.736 33.88,72.816 L33.88,73.276 C35.2133333,73.276 36.22,73.5893333 36.9,74.216 C37.4733333,74.7626667 37.76,75.4493333 37.76,76.276 C37.76,77.0093333 37.56,77.6126667 37.16,78.086 C36.76,78.5593333 36.2066667,78.796 35.5,78.796 C34.74,78.796 34.16,78.5426667 33.76,78.036 C33.4266667,77.6226667 33.26,77.1093333 33.26,76.496 C32.1266667,76.496 31.56,77.0026667 31.56,78.016 C31.56,78.5093333 31.7933333,78.936 32.26,79.296 C32.82,79.7493333 33.6333333,79.976 34.7,79.976 Z M55.54,79.976 C57.1,79.976 58.36,79.5226667 59.32,78.616 C60.2266667,77.7626667 60.68,76.7093333 60.68,75.456 C60.68,73.2826667 59.5533333,71.796 57.3,70.996 C56.58,70.7426667 55.9066667,70.6093333 55.28,70.596 L55.62,68.816 L60.06,68.836 L60.6,66.096 L54.58,66.096 L52.94,73.156 C55.0066667,73.156 56.5266667,73.5226667 57.5,74.256 C58.3133333,74.8693333 58.72,75.676 58.72,76.676 C58.72,78.0893333 57.9333333,78.796 56.36,78.796 C55.6266667,78.796 55.0533333,78.516 54.64,77.956 C54.2666667,77.4493333 54.08,76.816 54.08,76.056 C52.9066667,76.1093333 52.32,76.716 52.32,77.876 C52.32,78.4493333 52.5666667,78.9293333 53.06,79.316 C53.62,79.756 54.4466667,79.976 55.54,79.976 Z M70.54,79.656 L70.54,79.096 L70.34,79.096 C69.9533333,79.096 69.7066667,78.8893333 69.6,78.476 C69.5466667,78.2893333 69.52,77.9226667 69.52,77.376 L69.52,77.376 L69.54,74.916 C69.5533333,72.2093333 69.5733333,70.4093333 69.6,69.516 C69.6133333,68.876 69.6266667,68.2893333 69.64,67.756 C70.6,67.7826667 71.2933333,67.8026667 71.72,67.816 L71.72,67.816 L72.62,67.876 C73.1133333,67.9426667 73.5666667,68.336 73.98,69.056 L73.98,69.056 L73.98,67.396 L74,66.096 L62.08,66.096 L62.08,68.076 L62.1,68.936 C62.1,68.7893333 62.1666667,68.6493333 62.3,68.516 C62.38,68.436 62.4933333,68.3493333 62.64,68.256 C62.9733333,68.0293333 63.3066667,67.8893333 63.64,67.836 C63.8666667,67.796 64.2666667,67.776 64.84,67.776 L64.84,67.776 L65.3096,67.7752 C65.8898667,67.7730667 66.2866667,67.7666667 66.5,67.756 L66.5,67.756 L66.52,77.376 C66.52,77.9226667 66.4933333,78.2893333 66.44,78.476 C66.3333333,78.8893333 66.0866667,79.096 65.7,79.096 L65.7,79.096 L65.5,79.096 L65.5,79.656 L70.54,79.656 Z M80.32,79.656 L80.32,79.096 L80.12,79.096 C79.7333333,79.096 79.4866667,78.8893333 79.38,78.476 C79.3266667,78.2893333 79.3,77.9226667 79.3,77.376 L79.3,75.296 C79.3,74.7493333 79.3066667,74.136 79.32,73.456 L84.4,73.456 L84.4,77.376 C84.4,77.9226667 84.3733333,78.2893333 84.32,78.476 C84.2133333,78.8893333 83.9666667,79.096 83.58,79.096 L83.38,79.096 L83.38,79.656 L88.42,79.656 L88.42,79.096 L88.22,79.096 C87.8333333,79.096 87.5866667,78.8893333 87.48,78.476 C87.4266667,78.2893333 87.4,77.9226667 87.4,77.376 C87.4,75.8693333 87.4133333,74.3693333 87.44,72.876 L87.5,68.376 C87.5133333,67.816 87.54,67.4493333 87.58,67.276 C87.7,66.8626667 87.9466667,66.656 88.32,66.656 L88.52,66.656 L88.52,66.096 L83.38,66.096 L83.38,66.656 L83.58,66.656 C83.9666667,66.656 84.2133333,66.8626667 84.32,67.276 C84.3733333,67.4626667 84.4,67.8293333 84.4,68.376 L84.42,71.796 L79.36,71.796 C79.36,70.4893333 79.3733333,69.3493333 79.4,68.376 C79.4133333,67.8026667 79.44,67.436 79.48,67.276 C79.6,66.8626667 79.8466667,66.656 80.22,66.656 L80.42,66.656 L80.42,66.096 L75.28,66.096 L75.28,66.656 L75.48,66.656 C75.8666667,66.656 76.1133333,66.8626667 76.22,67.276 C76.2733333,67.4626667 76.3,67.8293333 76.3,68.376 L76.3,77.376 C76.3,77.9226667 76.2733333,78.2893333 76.22,78.476 C76.1133333,78.8893333 75.8666667,79.096 75.48,79.096 L75.28,79.096 L75.28,79.656 L80.32,79.656 Z M103.7,79.656 L103.7,79.096 C102.833333,79.096 102.4,78.756 102.4,78.076 C102.4,77.7693333 102.493333,77.3626667 102.68,76.856 L103.06,75.836 L107.48,75.836 L108.36,77.976 C108.426667,78.136 108.46,78.2893333 108.46,78.436 C108.46,78.876 107.96,79.096 106.96,79.096 L106.96,79.656 L113.22,79.656 L113.22,79.096 C112.846667,79.096 112.54,78.9126667 112.3,78.546 C112.06,78.1793333 111.56,77.1226667 110.8,75.376 L106.74,65.996 L105.6,65.996 L102.72,73.576 C102.28,74.736 101.973333,75.516 101.8,75.916 C101.413333,76.8226667 101.033333,77.5626667 100.66,78.136 C100.246667,78.776 99.8333333,79.096 99.42,79.096 L99.42,79.656 L103.7,79.656 Z M103.62,74.496 L104.4,72.336 C104.6,71.8426667 104.866667,71.0826667 105.2,70.056 L105.32,70.056 C105.426667,70.5893333 105.68,71.3693333 106.08,72.396 L106.88,74.476 L103.62,74.496 Z M120.44,79.756 L123.32,72.176 C123.76,71.016 124.066667,70.236 124.24,69.836 C124.626667,68.9293333 125.006667,68.1893333 125.38,67.616 C125.793333,66.976 126.206667,66.656 126.62,66.656 L126.62,66.096 L121.44,66.096 L121.44,66.656 C122.306667,66.656 122.74,66.996 122.74,67.676 C122.74,68.0093333 122.646667,68.416 122.46,68.896 L121.16,72.276 C120.96,72.7826667 120.693333,73.5426667 120.36,74.556 L120.24,74.556 C120.106667,73.916 119.853333,73.136 119.48,72.216 L117.68,67.776 C117.613333,67.616 117.58,67.4626667 117.58,67.316 C117.58,66.876 118.08,66.656 119.08,66.656 L119.08,66.096 L112.82,66.096 L112.82,66.656 C113.206667,66.656 113.51,66.826 113.73,67.166 C113.95,67.506 114.453333,68.576 115.24,70.376 L119.3,79.756 L120.44,79.756 Z M138.72,79.656 L138.92,75.556 L138.36,75.556 C138.333333,75.716 138.28,75.8293333 138.2,75.896 C138.08,75.9893333 137.993333,76.0893333 137.94,76.196 C137.486667,77.036 136.746667,77.6226667 135.72,77.956 C135.173333,78.1293333 134.54,78.216 133.82,78.216 C133.06,78.216 132.52,78.1293333 132.2,77.956 C131.76,77.716 131.54,77.2493333 131.54,76.556 L131.54,75.316 C131.54,74.956 131.546667,74.4026667 131.56,73.656 L134.4,73.576 L135.34,73.896 L135.34,71.196 L134.96,71.496 L134.58,71.636 L134.52,71.636 L134.52,71.636 C134.48,71.636 134.406667,71.6526667 134.3,71.686 C134.200952,71.7169524 133.716769,71.733534 132.847449,71.7357449 L131.62,71.736 L131.620711,69.7282667 C131.623793,69.4347556 131.636889,68.7506667 131.66,67.676 L133.46,67.676 C134.753333,67.676 135.726667,67.956 136.38,68.516 C136.633333,68.716 136.886667,68.9226667 137.14,69.136 C137.326667,69.3226667 137.433333,69.616 137.46,70.016 L138.02,70.016 L137.92,66.096 L127.52,66.096 L127.52,66.656 L127.72,66.656 C128.106667,66.656 128.353333,66.8626667 128.46,67.276 C128.513333,67.4626667 128.54,67.8293333 128.54,68.376 L128.54,77.376 C128.54,77.9226667 128.513333,78.2893333 128.46,78.476 C128.353333,78.8893333 128.106667,79.096 127.72,79.096 L127.52,79.096 L127.52,79.656 L138.72,79.656 Z M151.36,79.816 C151.746667,79.816 151.94,79.7626667 151.94,79.656 L151.94,68.796 C151.94,67.9693333 152.066667,67.3826667 152.32,67.036 C152.506667,66.7826667 152.773333,66.656 153.12,66.656 L153.32,66.656 L153.32,66.096 L148.06,66.076 L148.06,66.636 L148.3,66.636 C149.62,66.636 150.26,67.4293333 150.22,69.016 L150.16,71.656 C150.16,71.9226667 150.166667,72.2893333 150.18,72.756 C150.193333,73.276 150.2,73.636 150.2,73.836 L150.12,73.856 C150.066667,73.736 149.986667,73.5893333 149.88,73.416 L149.54,72.856 C149.393333,72.6293333 149.166667,72.296 148.86,71.856 L144.82,66.096 L140.5,66.096 L140.5,66.656 L140.7,66.656 C140.993333,66.656 141.286667,66.7826667 141.58,67.036 C141.913333,67.356 142.08,67.7693333 142.08,68.276 L142.08,76.536 C142.08,77.5093333 141.946667,78.2093333 141.68,78.636 C141.48,78.9426667 141.22,79.096 140.9,79.096 L140.7,79.096 L140.7,79.656 L146.14,79.616 L146.14,79.056 L145.9,79.056 C145.06,79.056 144.486667,78.8093333 144.18,78.316 C143.966667,77.956 143.853333,77.3293333 143.84,76.436 L143.78,71.776 C143.78,71.616 143.773333,71.2626667 143.76,70.716 C143.746667,70.276 143.74,69.916 143.74,69.636 L143.82,69.616 C144.033333,70.0826667 144.453333,70.736 145.08,71.576 L151.08,79.756 C151.12,79.796 151.213333,79.816 151.36,79.816 Z M161.42,79.976 C162.966667,79.976 164.25,79.5026667 165.27,78.556 C166.29,77.6093333 166.8,76.3826667 166.8,74.876 L166.8,69.396 C166.8,68.3426667 166.9,67.6026667 167.1,67.176 C167.26,66.8293333 167.486667,66.656 167.78,66.656 L167.98,66.656 L167.98,66.096 L162.96,66.076 L162.96,66.636 L163.44,66.636 C164.013333,66.636 164.386667,67.0626667 164.56,67.916 C164.626667,68.2493333 164.66,68.676 164.66,69.196 L164.66,74.956 C164.66,76.0493333 164.34,76.9093333 163.7,77.536 C163.406667,77.816 163.073333,78.0226667 162.7,78.156 C162.46,78.2493333 162.22,78.296 161.98,78.296 C161.713333,78.296 161.486667,78.2626667 161.3,78.196 C160.62,77.9693333 160.09,77.586 159.71,77.046 C159.33,76.506 159.14,75.8826667 159.14,75.176 C159.14,73.1093333 159.166667,70.8426667 159.22,68.376 C159.233333,67.816 159.26,67.4493333 159.3,67.276 C159.42,66.8626667 159.666667,66.656 160.04,66.656 L160.24,66.656 L160.24,66.096 L155.1,66.096 L155.1,66.656 L155.3,66.656 C155.686667,66.656 155.933333,66.8626667 156.04,67.276 C156.093333,67.4626667 156.12,67.8293333 156.12,68.376 L156.12,74.876 C156.12,76.4893333 156.673333,77.7626667 157.78,78.696 C158.78,79.5493333 159.993333,79.976 161.42,79.976 Z M180.96,79.656 L181.16,75.556 L180.6,75.556 C180.573333,75.716 180.52,75.8293333 180.44,75.896 C180.32,75.9893333 180.233333,76.0893333 180.18,76.196 C179.726667,77.036 178.986667,77.6226667 177.96,77.956 C177.413333,78.1293333 176.78,78.216 176.06,78.216 C175.3,78.216 174.76,78.1293333 174.44,77.956 C174,77.716 173.78,77.2493333 173.78,76.556 L173.78,75.316 C173.78,74.956 173.786667,74.4026667 173.8,73.656 L176.64,73.576 L177.58,73.896 L177.58,71.196 L177.2,71.496 L176.82,71.636 L176.76,71.636 L176.76,71.636 C176.72,71.636 176.646667,71.6526667 176.54,71.686 C176.440952,71.7169524 175.956769,71.733534 175.087449,71.7357449 L173.86,71.736 L173.86,69.836 L173.86,69.836 C173.86,69.636 173.873333,68.916 173.9,67.676 L175.7,67.676 C176.993333,67.676 177.966667,67.956 178.62,68.516 C178.873333,68.716 179.126667,68.9226667 179.38,69.136 C179.566667,69.3226667 179.673333,69.616 179.7,70.016 L180.26,70.016 L180.16,66.096 L169.76,66.096 L169.76,66.656 L169.96,66.656 C170.346667,66.656 170.593333,66.8626667 170.7,67.276 C170.753333,67.4626667 170.78,67.8293333 170.78,68.376 L170.78,77.376 C170.78,77.9226667 170.753333,78.2893333 170.7,78.476 C170.593333,78.8893333 170.346667,79.096 169.96,79.096 L169.76,79.096 L169.76,79.656 L180.96,79.656 Z" id="38735thAvenue" fill="#000000"></path>
                </g>
            </g>
        </g>
    </g>
</svg>